<svg width="24" height="25" viewBox="0 0 24 25" fill="none" xmlns="http://www.w3.org/2000/svg">
<path d="M15.8848 3.375H9.38477C6.07106 3.375 3.38477 6.06129 3.38477 9.375V15.875C3.38477 19.1887 6.07106 21.875 9.38477 21.875H15.8848C19.1985 21.875 21.8848 19.1887 21.8848 15.875V9.375C21.8848 6.06129 19.1985 3.375 15.8848 3.375Z" stroke="#0D47A1" stroke-width="1.5"/>
<path d="M7.63477 15.625L10.0848 12.365C10.2348 12.1642 10.4547 12.0271 10.7011 11.9808C10.9474 11.9345 11.2021 11.9824 11.4148 12.115L13.8048 13.625C14.0256 13.7656 14.2928 13.8141 14.549 13.7598C14.8052 13.7056 15.0298 13.5531 15.1748 13.335L17.6348 9.625" stroke="#0D47A1" stroke-width="1.5" stroke-linecap="round" stroke-linejoin="round"/>
</svg>
