<svg width="24" height="25" viewBox="0 0 24 25" fill="none" xmlns="http://www.w3.org/2000/svg">
<path d="M12 4.375C11.5027 4.375 11.0258 4.57254 10.6742 4.92417C10.3225 5.27581 10.125 5.75272 10.125 6.25C10.125 6.74728 10.3225 7.22419 10.6742 7.57583C11.0258 7.92746 11.5027 8.125 12 8.125C12.4973 8.125 12.9742 7.92746 13.3258 7.57583C13.6775 7.22419 13.875 6.74728 13.875 6.25C13.875 5.75272 13.6775 5.27581 13.3258 4.92417C12.9742 4.57254 12.4973 4.375 12 4.375ZM8.625 6.25C8.625 5.35489 8.98058 4.49645 9.61351 3.86351C10.2465 3.23058 11.1049 2.875 12 2.875C12.8951 2.875 13.7535 3.23058 14.3865 3.86351C15.0194 4.49645 15.375 5.35489 15.375 6.25C15.375 7.14511 15.0194 8.00355 14.3865 8.63649C13.7535 9.26942 12.8951 9.625 12 9.625C11.1049 9.625 10.2465 9.26942 9.61351 8.63649C8.98058 8.00355 8.625 7.14511 8.625 6.25ZM4.5 6.625C4.10218 6.625 3.72064 6.78304 3.43934 7.06434C3.15804 7.34564 3 7.72718 3 8.125C3 8.52282 3.15804 8.90436 3.43934 9.18566C3.72064 9.46696 4.10218 9.625 4.5 9.625C4.89782 9.625 5.27936 9.46696 5.56066 9.18566C5.84196 8.90436 6 8.52282 6 8.125C6 7.72718 5.84196 7.34564 5.56066 7.06434C5.27936 6.78304 4.89782 6.625 4.5 6.625ZM1.5 8.125C1.5 7.32935 1.81607 6.56629 2.37868 6.00368C2.94129 5.44107 3.70435 5.125 4.5 5.125C5.29565 5.125 6.05871 5.44107 6.62132 6.00368C7.18393 6.56629 7.5 7.32935 7.5 8.125C7.5 8.92065 7.18393 9.68371 6.62132 10.2463C6.05871 10.8089 5.29565 11.125 4.5 11.125C3.70435 11.125 2.94129 10.8089 2.37868 10.2463C1.81607 9.68371 1.5 8.92065 1.5 8.125ZM18 8.125C18 7.72718 18.158 7.34564 18.4393 7.06434C18.7206 6.78304 19.1022 6.625 19.5 6.625C19.8978 6.625 20.2794 6.78304 20.5607 7.06434C20.842 7.34564 21 7.72718 21 8.125C21 8.52282 20.842 8.90436 20.5607 9.18566C20.2794 9.46696 19.8978 9.625 19.5 9.625C19.1022 9.625 18.7206 9.46696 18.4393 9.18566C18.158 8.90436 18 8.52282 18 8.125ZM19.5 5.125C18.7044 5.125 17.9413 5.44107 17.3787 6.00368C16.8161 6.56629 16.5 7.32935 16.5 8.125C16.5 8.92065 16.8161 9.68371 17.3787 10.2463C17.9413 10.8089 18.7044 11.125 19.5 11.125C20.2956 11.125 21.0587 10.8089 21.6213 10.2463C22.1839 9.68371 22.5 8.92065 22.5 8.125C22.5 7.32935 22.1839 6.56629 21.6213 6.00368C21.0587 5.44107 20.2956 5.125 19.5 5.125ZM6.375 13C6.375 12.833 6.38825 12.6702 6.41475 12.5118L2.88975 13.456C2.4095 13.5848 2.00008 13.8991 1.75155 14.3298C1.50303 14.7605 1.43574 15.2722 1.5645 15.7525L2.244 18.2875C2.40802 18.9 2.69962 19.4709 3.0997 19.9628C3.49978 20.4548 3.9993 20.8566 4.56553 21.1419C5.13175 21.4273 5.75189 21.5898 6.3853 21.6188C7.01871 21.6477 7.6511 21.5425 8.241 21.31C7.83557 20.9461 7.48516 20.5252 7.20075 20.0605C6.45073 20.2163 5.66954 20.0792 5.01733 19.6775C4.36511 19.2757 3.89129 18.6397 3.693 17.8998L3.0135 15.3647C3.00068 15.3172 2.99735 15.2675 3.00372 15.2187C3.01009 15.1698 3.02602 15.1227 3.05061 15.08C3.07519 15.0373 3.10795 14.9999 3.14701 14.9699C3.18607 14.9398 3.23067 14.9178 3.27825 14.905L6.375 14.0755V13ZM16.2428 21.4697C16.0784 21.4259 15.9166 21.3729 15.7582 21.3107C16.1639 20.9469 16.5146 20.526 16.7992 20.0613C17.5492 20.2166 18.3301 20.0792 18.9819 19.6773C19.6338 19.2754 20.1074 18.6395 20.3055 17.8998L20.9842 15.364C21.0099 15.268 20.9965 15.1658 20.9468 15.0797C20.8972 14.9937 20.8154 14.9308 20.7195 14.905L17.625 14.0755V13C17.625 12.834 17.6117 12.6715 17.5853 12.5125L21.108 13.456C21.5883 13.5848 21.9977 13.8991 22.2462 14.3298C22.4947 14.7605 22.562 15.2722 22.4333 15.7525L21.7537 18.2875C21.4449 19.4403 20.6908 20.4232 19.6573 21.0199C18.6238 21.6167 17.3955 21.7785 16.2428 21.4697ZM9.375 11.125C8.87772 11.125 8.40081 11.3225 8.04917 11.6742C7.69754 12.0258 7.5 12.5027 7.5 13V17.125C7.5 18.3185 7.97411 19.4631 8.81802 20.307C9.66193 21.1509 10.8065 21.625 12 21.625C13.1935 21.625 14.3381 21.1509 15.182 20.307C16.0259 19.4631 16.5 18.3185 16.5 17.125V13C16.5 12.5027 16.3025 12.0258 15.9508 11.6742C15.5992 11.3225 15.1223 11.125 14.625 11.125H9.375ZM9 13C9 12.9005 9.03951 12.8052 9.10983 12.7348C9.18016 12.6645 9.27554 12.625 9.375 12.625H14.625C14.7245 12.625 14.8198 12.6645 14.8902 12.7348C14.9605 12.8052 15 12.9005 15 13V17.125C15 17.9206 14.6839 18.6837 14.1213 19.2463C13.5587 19.8089 12.7956 20.125 12 20.125C11.2044 20.125 10.4413 19.8089 9.87868 19.2463C9.31607 18.6837 9 17.9206 9 17.125V13Z" fill="#0D47A1"/>
</svg>
