<svg width="20" height="20" viewBox="0 0 20 20" fill="none" xmlns="http://www.w3.org/2000/svg">
<path d="M2.85402 2.14599C2.80753 2.0995 2.75234 2.06263 2.6916 2.03747C2.63087 2.01231 2.56577 1.99936 2.50002 1.99936C2.43428 1.99936 2.36918 2.01231 2.30844 2.03747C2.2477 2.06263 2.19251 2.0995 2.14602 2.14599C2.09953 2.19248 2.06266 2.24767 2.0375 2.30841C2.01234 2.36915 1.99939 2.43425 1.99939 2.49999C1.99939 2.56573 2.01234 2.63083 2.0375 2.69157C2.06266 2.75231 2.09953 2.8075 2.14602 2.85399L5.64602 6.35199C3.91282 7.53455 2.70612 9.34352 2.28002 11.398C2.26663 11.4623 2.26604 11.5287 2.27829 11.5933C2.29054 11.6578 2.31538 11.7194 2.35141 11.7743C2.38744 11.8293 2.43395 11.8767 2.48827 11.9137C2.54259 11.9507 2.60367 11.9766 2.66802 11.99C2.73237 12.0034 2.79872 12.004 2.8633 11.9917C2.92788 11.9795 2.98941 11.9546 3.04438 11.9186C3.09935 11.8826 3.14669 11.8361 3.18369 11.7817C3.22069 11.7274 3.24663 11.6663 3.26002 11.602C3.45132 10.6788 3.82458 9.80287 4.35803 9.02544C4.89148 8.24802 5.57443 7.58463 6.36702 7.07399L7.95302 8.65999C7.54179 8.95652 7.19989 9.33885 6.95098 9.78053C6.70206 10.2222 6.55207 10.7127 6.51139 11.218C6.47071 11.7234 6.5403 12.2316 6.71535 12.7074C6.8904 13.1832 7.16673 13.6153 7.52523 13.9738C7.88373 14.3323 8.31583 14.6086 8.79164 14.7837C9.26745 14.9587 9.77561 15.0283 10.281 14.9876C10.7863 14.9469 11.2768 14.7969 11.7185 14.548C12.1602 14.2991 12.5425 13.9572 12.839 13.546L17.146 17.854C17.2399 17.9479 17.3672 18.0006 17.5 18.0006C17.6328 18.0006 17.7601 17.9479 17.854 17.854C17.9479 17.7601 18.0007 17.6328 18.0007 17.5C18.0007 17.3672 17.9479 17.2399 17.854 17.146L2.85402 2.14599ZM12.119 12.826C11.9194 13.1444 11.6506 13.4138 11.3326 13.614C11.0145 13.8142 10.6555 13.9401 10.282 13.9824C9.9086 14.0247 9.53044 13.9823 9.17568 13.8582C8.82092 13.7342 8.49868 13.5318 8.23294 13.2661C7.9672 13.0003 7.76479 12.6781 7.64077 12.3233C7.51675 11.9686 7.4743 11.5904 7.51659 11.217C7.55888 10.8436 7.68481 10.4845 7.88503 10.1664C8.08524 9.84839 8.35458 9.57958 8.67302 9.37999L12.119 12.826ZM10.124 8.00199L13.498 11.376C13.4667 10.4911 13.1012 9.65101 12.4751 9.02493C11.849 8.39884 11.0089 8.03331 10.124 8.00199ZM10 5.99999C9.43002 5.99999 8.87102 6.07399 8.33402 6.21299L7.53102 5.40999C8.32615 5.13959 9.16017 5.00109 10 4.99999C13.693 4.99999 16.942 7.67299 17.72 11.398C17.7471 11.5279 17.7214 11.6633 17.6486 11.7743C17.5759 11.8854 17.462 11.9629 17.332 11.99C17.2021 12.017 17.0667 11.9914 16.9557 11.9186C16.8446 11.8458 16.7671 11.7319 16.74 11.602C16.058 8.32699 13.207 5.99999 10 5.99999Z" fill="black"/>
</svg>
