<svg width="20" height="20" viewBox="0 0 20 20" fill="none" xmlns="http://www.w3.org/2000/svg">
<path d="M3.25998 11.602C3.94198 8.327 6.79298 6 9.99998 6C13.207 6 16.057 8.327 16.74 11.602C16.767 11.732 16.8446 11.8458 16.9556 11.9186C17.0666 11.9914 17.202 12.0171 17.332 11.99C17.4619 11.9629 17.5758 11.8854 17.6486 11.7744C17.7213 11.6633 17.747 11.528 17.72 11.398C16.943 7.673 13.693 5 9.99998 5C6.30698 5 3.05698 7.673 2.27998 11.398C2.25292 11.528 2.2786 11.6633 2.35137 11.7744C2.42413 11.8854 2.53802 11.9629 2.66798 11.99C2.79793 12.0171 2.93331 11.9914 3.04433 11.9186C3.15535 11.8458 3.23292 11.732 3.25998 11.602ZM9.99998 8C9.07172 8 8.18148 8.36875 7.5251 9.02513C6.86873 9.6815 6.49998 10.5717 6.49998 11.5C6.49998 12.4283 6.86873 13.3185 7.5251 13.9749C8.18148 14.6313 9.07172 15 9.99998 15C10.9282 15 11.8185 14.6313 12.4748 13.9749C13.1312 13.3185 13.5 12.4283 13.5 11.5C13.5 10.5717 13.1312 9.6815 12.4748 9.02513C11.8185 8.36875 10.9282 8 9.99998 8ZM7.49998 11.5C7.49998 10.837 7.76337 10.2011 8.23221 9.73223C8.70105 9.26339 9.33694 9 9.99998 9C10.663 9 11.2989 9.26339 11.7677 9.73223C12.2366 10.2011 12.5 10.837 12.5 11.5C12.5 12.163 12.2366 12.7989 11.7677 13.2678C11.2989 13.7366 10.663 14 9.99998 14C9.33694 14 8.70105 13.7366 8.23221 13.2678C7.76337 12.7989 7.49998 12.163 7.49998 11.5Z" fill="black" fill-opacity="0.71"/>
</svg>
