<svg width="24" height="25" viewBox="0 0 24 25" fill="none" xmlns="http://www.w3.org/2000/svg">
<path d="M20.6348 7.625V21.625C20.6348 21.8902 20.5294 22.1446 20.3419 22.3321C20.1543 22.5196 19.9 22.625 19.6348 22.625H5.63477C5.36955 22.625 5.1152 22.5196 4.92766 22.3321C4.74012 22.1446 4.63477 21.8902 4.63477 21.625V3.625C4.63477 3.35978 4.74012 3.10543 4.92766 2.91789C5.1152 2.73036 5.36955 2.625 5.63477 2.625H15.6348M20.6348 7.625H15.6348V2.625M20.6348 7.625L15.6348 2.625" stroke="#0D47A1" stroke-width="2" stroke-linecap="round" stroke-linejoin="round"/>
<path d="M12.6348 14.625C13.7393 14.625 14.6348 13.7296 14.6348 12.625C14.6348 11.5204 13.7393 10.625 12.6348 10.625C11.5302 10.625 10.6348 11.5204 10.6348 12.625C10.6348 13.7296 11.5302 14.625 12.6348 14.625Z" stroke="#0D47A1" stroke-width="2" stroke-linecap="round" stroke-linejoin="round"/>
<path d="M16.6348 18.625C16.6348 17.5641 16.2133 16.5467 15.4632 15.7966C14.713 15.0464 13.6956 14.625 12.6348 14.625C11.5739 14.625 10.5565 15.0464 9.80634 15.7966C9.05619 16.5467 8.63477 17.5641 8.63477 18.625" stroke="#0D47A1" stroke-width="2" stroke-linecap="round" stroke-linejoin="round"/>
</svg>
