<svg width="170" height="162" viewBox="0 0 170 162" fill="none" xmlns="http://www.w3.org/2000/svg">
<rect x="0.5" y="-0.5" width="167.707" height="161" rx="80.5" transform="matrix(-1 0 0 1 169.353 1)" stroke="#B0BEC5"/>
<path d="M24.7901 129.149C24.1913 129.029 23.8379 128.405 24.0617 127.837C27.7938 118.361 35.4632 110.002 45.9816 103.977C56.8994 97.7231 70.2766 94.3334 84.0383 94.3334C97.7999 94.3334 111.177 97.7231 122.095 103.977C132.613 110.002 140.283 118.36 144.015 127.837C144.239 128.405 143.885 129.029 143.286 129.149L91.8837 139.431C86.7047 140.467 81.3718 140.467 76.1928 139.431L24.7901 129.149Z" fill="#B0BEC5"/>
<ellipse cx="34.7305" cy="33.3333" rx="34.7305" ry="33.3333" transform="matrix(-1 0 0 1 118.769 21)" fill="#B0BEC5"/>
</svg>
